<svg xmlns="http://www.w3.org/2000/svg" viewBox="0 0 64 64" fill="#fff" fill-rule="evenodd" stroke="#000" stroke-linecap="round" stroke-linejoin="round"><g transform="translate(12 12)"><g stroke="none"><path d="M0 20A19.96 19.96 0 0 1 20 0a19.96 19.96 0 0 1 20 20 19.96 19.96 0 0 1-20 20A19.96 19.96 0 0 1 0 20zm2 0A17.96 17.96 0 0 1 20 2a17.96 17.96 0 0 1 18 18 17.96 17.96 0 0 1-18 18A17.96 17.96 0 0 1 2 20z" fill="url(#E)"/><circle cx="20" cy="20" fill="url(#F)" r="18.1"/><path d="M1.9 20A18.06 18.06 0 0 1 20 1.9 18.06 18.06 0 0 1 38.1 20 18.06 18.06 0 0 1 20 38.1 18.06 18.06 0 0 1 1.9 20zM3 20c0-9.418 7.582-17 17-17s17 7.582 17 17-7.582 17-17 17S3 29.418 3 20z" fill="url(#G)" fill-opacity=".25"/></g><g transform="translate(6 6)"><circle cx="14" cy="14" fill="red" stroke="none" filter="url(#A)" r="14"/><defs><filter x="-28.571428571428573%" y="-28.571518100318407%" width="157.14285714285714%" height="157.1430362006368%" id="A"><feGaussianBlur in="SourceGraphic" stdDeviation="3"/></filter></defs></g><g transform="matrix(-1 0 0 -1 22 22)"><path d="M18.541.903L15.556 0 10 .588 3.333 4.118 0 11.765l.633 5.808C2.64 19.101 5.106 20 7.778 20 14.549 20 20 14.228 20 7.059c0-2.231-.528-4.327-1.459-6.156z" fill="#fffffe" fill-opacity=".8" filter="url(#B)" stroke="none"/><defs><filter x="-62.5%" y="-62.500195112539416%" width="225%" height="225.00039022507883%" id="B"><feGaussianBlur in="SourceGraphic" stdDeviation="5"/></filter></defs></g></g><defs><filter x="-25.714285714285715%" y="-25.714285714285715%" width="151.42857142857142%" height="151.42857142857142%" ><feGaussianBlur in="SourceGraphic" stdDeviation="7"/></filter><filter x="-50%" y="-50%" width="200%" height="200%" ><feGaussianBlur in="SourceGraphic" stdDeviation="10"/></filter><linearGradient id="E" x1="0%" y1="0%" x2="100%" y2="100%"><stop offset="0%" stop-color="#5a5a5a"/><stop offset="100%"/></linearGradient><linearGradient id="F" x1="0%" y1="0%" x2="100%" y2="100%"><stop offset="0%" stop-color="#ec3932"/><stop offset="100%" stop-color="#941212"/></linearGradient><linearGradient id="G" x1="0%" y1="0%" x2="100%" y2="100%"><stop offset="0%" stop-color="#fff"/><stop offset="100%"/></linearGradient></defs></svg>